<?xml version="1.0" encoding="UTF-8" standalone="no"?>
<!DOCTYPE svg PUBLIC "-//W3C//DTD SVG 1.1//EN"
 "http://www.w3.org/Graphics/SVG/1.1/DTD/svg11.dtd">
<!-- Generated by graphviz version 2.40.1 (20161225.0304)
 -->
<!-- Title: %3 Pages: 1 -->
<svg width="713pt" height="416pt"
 viewBox="0.00 0.00 713.00 416.00" xmlns="http://www.w3.org/2000/svg" xmlns:xlink="http://www.w3.org/1999/xlink">
<g id="graph0" class="graph" transform="scale(1 1) rotate(0) translate(4 412)">
<title>%3</title>
<polygon fill="#ffffff" stroke="transparent" points="-4,4 -4,-412 709,-412 709,4 -4,4"/>
<!-- data2_ArgR -->
<g id="node1" class="node">
<title>data2_ArgR</title>
<text text-anchor="middle" x="55.5" y="-327.3" font-family="Helvetica,sans-Serif" font-size="14.00" fill="#000000">ArgR</text>
</g>
<!-- data2_Cbl+CysB -->
<g id="node2" class="node">
<title>data2_Cbl+CysB</title>
<text text-anchor="middle" x="206.5" y="-327.3" font-family="Helvetica,sans-Serif" font-size="14.00" fill="#000000">Cbl+CysB</text>
</g>
<!-- data2_CecR -->
<g id="node3" class="node">
<title>data2_CecR</title>
<text text-anchor="middle" x="340.5" y="-327.3" font-family="Helvetica,sans-Serif" font-size="14.00" fill="#000000">CecR</text>
</g>
<!-- data2_CysB -->
<g id="node4" class="node">
<title>data2_CysB</title>
<text text-anchor="middle" x="449.5" y="-327.3" font-family="Helvetica,sans-Serif" font-size="14.00" fill="#000000">CysB</text>
</g>
<!-- data2_EvgA -->
<g id="node5" class="node">
<title>data2_EvgA</title>
<text text-anchor="middle" x="546.5" y="-327.3" font-family="Helvetica,sans-Serif" font-size="14.00" fill="#000000">EvgA</text>
</g>
<!-- data2_FlhDC -->
<g id="node6" class="node">
<title>data2_FlhDC</title>
<text text-anchor="middle" x="27.5" y="-223.3" font-family="Helvetica,sans-Serif" font-size="14.00" fill="#000000">FlhDC</text>
</g>
<!-- data2_FliA -->
<g id="node7" class="node">
<title>data2_FliA</title>
<text text-anchor="middle" x="83.5" y="-223.3" font-family="Helvetica,sans-Serif" font-size="14.00" fill="#000000">FliA</text>
</g>
<!-- data2_Fur&#45;1 -->
<g id="node8" class="node">
<title>data2_Fur&#45;1</title>
<text text-anchor="middle" x="145.5" y="-223.3" font-family="Helvetica,sans-Serif" font-size="14.00" fill="#000000">Fur&#45;1</text>
</g>
<!-- data2_GlpR -->
<g id="node9" class="node">
<title>data2_GlpR</title>
<text text-anchor="middle" x="340.5" y="-223.3" font-family="Helvetica,sans-Serif" font-size="14.00" fill="#000000">GlpR</text>
</g>
<!-- data2_His&#45;tRNA -->
<g id="node10" class="node">
<title>data2_His&#45;tRNA</title>
<text text-anchor="middle" x="449.5" y="-223.3" font-family="Helvetica,sans-Serif" font-size="14.00" fill="#000000">His&#45;tRNA</text>
</g>
<!-- data2_Leu/Ile -->
<g id="node11" class="node">
<title>data2_Leu/Ile</title>
<text text-anchor="middle" x="612.5" y="-223.3" font-family="Helvetica,sans-Serif" font-size="14.00" fill="#000000">Leu/Ile</text>
</g>
<!-- data2_NarL -->
<g id="node12" class="node">
<title>data2_NarL</title>
<text text-anchor="middle" x="667.5" y="-327.3" font-family="Helvetica,sans-Serif" font-size="14.00" fill="#000000">NarL</text>
</g>
<!-- data2_NtrC+RpoN -->
<g id="node13" class="node">
<title>data2_NtrC+RpoN</title>
<text text-anchor="middle" x="55.5" y="-120.3" font-family="Helvetica,sans-Serif" font-size="14.00" fill="#000000">NtrC+RpoN</text>
</g>
<!-- data2_PurR&#45;1 -->
<g id="node14" class="node">
<title>data2_PurR&#45;1</title>
<text text-anchor="middle" x="206.5" y="-120.3" font-family="Helvetica,sans-Serif" font-size="14.00" fill="#000000">PurR&#45;1</text>
</g>
<!-- data2_PurR&#45;2 -->
<g id="node15" class="node">
<title>data2_PurR&#45;2</title>
<text text-anchor="middle" x="340.5" y="-120.3" font-family="Helvetica,sans-Serif" font-size="14.00" fill="#000000">PurR&#45;2</text>
</g>
<!-- data2_RbsR -->
<g id="node16" class="node">
<title>data2_RbsR</title>
<text text-anchor="middle" x="448.5" y="-120.3" font-family="Helvetica,sans-Serif" font-size="14.00" fill="#000000">RbsR</text>
</g>
<!-- data2_RpoS -->
<g id="node17" class="node">
<title>data2_RpoS</title>
<text text-anchor="middle" x="612.5" y="-120.3" font-family="Helvetica,sans-Serif" font-size="14.00" fill="#000000">RpoS</text>
</g>
<!-- data2_Thiamine -->
<g id="node18" class="node">
<title>data2_Thiamine</title>
<text text-anchor="middle" x="55.5" y="-15.3" font-family="Helvetica,sans-Serif" font-size="14.00" fill="#000000">Thiamine</text>
</g>
<!-- data2_Zinc -->
<g id="node19" class="node">
<title>data2_Zinc</title>
<text text-anchor="middle" x="206.5" y="-15.3" font-family="Helvetica,sans-Serif" font-size="14.00" fill="#000000">Zinc</text>
</g>
<!-- data2_efeU&#45;repair -->
<g id="node20" class="node">
<title>data2_efeU&#45;repair</title>
<text text-anchor="middle" x="200.5" y="-230.8" font-family="Helvetica,sans-Serif" font-size="14.00" fill="#000000">efeU&#45;&#45;</text>
<text text-anchor="middle" x="200.5" y="-215.8" font-family="Helvetica,sans-Serif" font-size="14.00" fill="#000000">repair</text>
</g>
<!-- data2_entC&#45;menF&#45;KO -->
<g id="node21" class="node">
<title>data2_entC&#45;menF&#45;KO</title>
<text text-anchor="middle" x="261.5" y="-230.8" font-family="Helvetica,sans-Serif" font-size="14.00" fill="#000000">entC&#45;m&#45;</text>
<text text-anchor="middle" x="261.5" y="-215.8" font-family="Helvetica,sans-Serif" font-size="14.00" fill="#000000">enF&#45;KO</text>
</g>
<!-- data2_nitrate&#45;related -->
<g id="node22" class="node">
<title>data2_nitrate&#45;related</title>
<text text-anchor="middle" x="605.5" y="-334.8" font-family="Helvetica,sans-Serif" font-size="14.00" fill="#000000">nitrate&#45;</text>
<text text-anchor="middle" x="605.5" y="-319.8" font-family="Helvetica,sans-Serif" font-size="14.00" fill="#000000">&#45;related</text>
</g>
<!-- data2_translation -->
<g id="node23" class="node">
<title>data2_translation</title>
<text text-anchor="middle" x="340.5" y="-22.8" font-family="Helvetica,sans-Serif" font-size="14.00" fill="#000000">trans&#45;</text>
<text text-anchor="middle" x="340.5" y="-7.8" font-family="Helvetica,sans-Serif" font-size="14.00" fill="#000000">lation</text>
</g>
<!-- data1_CcpA&#45;1 -->
<g id="node24" class="node">
<title>data1_CcpA&#45;1</title>
<text text-anchor="middle" x="417.5" y="-178.3" font-family="Helvetica,sans-Serif" font-size="14.00" fill="#000000">CcpA&#45;1</text>
</g>
<!-- data1_CcpA&#45;1&#45;&gt;data2_RbsR -->
<g id="edge24" class="edge">
<title>data1_CcpA&#45;1&#45;&gt;data2_RbsR</title>
<path fill="none" stroke="#000000" stroke-width="1.33" d="M427.1387,-163.9664C430.0269,-158.5626 433.2335,-152.5631 436.2655,-146.8903"/>
<polygon fill="#000000" stroke="#000000" stroke-width="1.33" points="437.947,-147.4568 438.7605,-142.2222 434.8602,-145.807 437.947,-147.4568"/>
</g>
<!-- data1_CcpA&#45;2 -->
<g id="node25" class="node">
<title>data1_CcpA&#45;2</title>
<text text-anchor="middle" x="480.5" y="-178.3" font-family="Helvetica,sans-Serif" font-size="14.00" fill="#000000">CcpA&#45;2</text>
</g>
<!-- data1_CcpA&#45;2&#45;&gt;data2_RbsR -->
<g id="edge28" class="edge">
<title>data1_CcpA&#45;2&#45;&gt;data2_RbsR</title>
<path fill="none" stroke="#000000" stroke-width="2.05" d="M470.5504,-163.9664C467.569,-158.5626 464.2589,-152.5631 461.1291,-146.8903"/>
<polygon fill="#000000" stroke="#000000" stroke-width="2.05" points="462.5013,-145.7547 458.5536,-142.2222 459.4368,-147.4455 462.5013,-145.7547"/>
</g>
<!-- data1_CymR&#45;1 -->
<g id="node26" class="node">
<title>data1_CymR&#45;1</title>
<text text-anchor="middle" x="449.5" y="-385.3" font-family="Helvetica,sans-Serif" font-size="14.00" fill="#000000">CymR&#45;1</text>
</g>
<!-- data1_CymR&#45;1&#45;&gt;data2_CysB -->
<g id="edge6" class="edge">
<title>data1_CymR&#45;1&#45;&gt;data2_CysB</title>
<path fill="none" stroke="#000000" stroke-width="2.57" d="M449.5,-370.9664C449.5,-365.6707 449.5,-359.8028 449.5,-354.231"/>
<polygon fill="#000000" stroke="#000000" stroke-width="2.57" points="451.2501,-354.2222 449.5,-349.2222 447.7501,-354.2223 451.2501,-354.2222"/>
</g>
<!-- data1_CymR&#45;2 -->
<g id="node27" class="node">
<title>data1_CymR&#45;2</title>
<text text-anchor="middle" x="206.5" y="-385.3" font-family="Helvetica,sans-Serif" font-size="14.00" fill="#000000">CymR&#45;2</text>
</g>
<!-- data1_CymR&#45;2&#45;&gt;data2_Cbl+CysB -->
<g id="edge7" class="edge">
<title>data1_CymR&#45;2&#45;&gt;data2_Cbl+CysB</title>
<path fill="none" stroke="#000000" stroke-width="2.32" d="M206.5,-370.9664C206.5,-365.6707 206.5,-359.8028 206.5,-354.231"/>
<polygon fill="#000000" stroke="#000000" stroke-width="2.32" points="208.2501,-354.2222 206.5,-349.2222 204.7501,-354.2223 208.2501,-354.2222"/>
</g>
<!-- data1_Fnr -->
<g id="node28" class="node">
<title>data1_Fnr</title>
<text text-anchor="middle" x="603.5" y="-386.3" font-family="Helvetica,sans-Serif" font-size="14.00" fill="#000000">Fnr</text>
</g>
<!-- data1_Fnr&#45;&gt;data2_EvgA -->
<g id="edge1" class="edge">
<title>data1_Fnr&#45;&gt;data2_EvgA</title>
<path fill="none" stroke="#000000" stroke-width="1.29" d="M586.0884,-371.9775C580.3406,-366.0279 573.8798,-359.3405 567.8709,-353.1208"/>
<polygon fill="#000000" stroke="#000000" stroke-width="1.29" points="568.931,-351.6994 564.1984,-349.3193 566.4138,-354.1313 568.931,-351.6994"/>
</g>
<!-- data1_Fnr&#45;&gt;data2_NarL -->
<g id="edge2" class="edge">
<title>data1_Fnr&#45;&gt;data2_NarL</title>
<path fill="none" stroke="#000000" stroke-width="1.92" d="M623.0499,-371.9775C629.6253,-365.9157 637.0317,-359.0879 643.8859,-352.7692"/>
<polygon fill="#000000" stroke="#000000" stroke-width="1.92" points="645.1381,-353.9951 647.6282,-349.3193 642.7658,-351.4217 645.1381,-353.9951"/>
</g>
<!-- data1_Fnr&#45;&gt;data2_nitrate&#45;related -->
<g id="edge3" class="edge">
<title>data1_Fnr&#45;&gt;data2_nitrate&#45;related</title>
<path fill="none" stroke="#000000" stroke-width="1.41" d="M604.1109,-371.9775C604.2904,-366.6845 604.4896,-360.8076 604.6798,-355.1955"/>
<polygon fill="#000000" stroke="#000000" stroke-width="1.41" points="606.4307,-355.1968 604.8512,-350.1403 602.9327,-355.0781 606.4307,-355.1968"/>
</g>
<!-- data1_Fur -->
<g id="node29" class="node">
<title>data1_Fur</title>
<text text-anchor="middle" x="200.5" y="-282.3" font-family="Helvetica,sans-Serif" font-size="14.00" fill="#000000">Fur</text>
</g>
<!-- data1_Fur&#45;&gt;data2_Fur&#45;1 -->
<g id="edge21" class="edge">
<title>data1_Fur&#45;&gt;data2_Fur&#45;1</title>
<path fill="none" stroke="#000000" stroke-width="3.34" d="M183.6993,-267.9775C178.1532,-262.0279 171.9191,-255.3405 166.1211,-249.1208"/>
<polygon fill="#000000" stroke="#000000" stroke-width="3.34" points="167.2668,-247.7834 162.5774,-245.3193 164.7067,-250.17 167.2668,-247.7834"/>
</g>
<!-- data1_Fur&#45;&gt;data2_efeU&#45;repair -->
<g id="edge22" class="edge">
<title>data1_Fur&#45;&gt;data2_efeU&#45;repair</title>
<path fill="none" stroke="#000000" stroke-width="2.39" d="M200.5,-267.9775C200.5,-262.6845 200.5,-256.8076 200.5,-251.1955"/>
<polygon fill="#000000" stroke="#000000" stroke-width="2.39" points="202.2501,-251.1403 200.5,-246.1403 198.7501,-251.1404 202.2501,-251.1403"/>
</g>
<!-- data1_Fur&#45;&gt;data2_entC&#45;menF&#45;KO -->
<g id="edge23" class="edge">
<title>data1_Fur&#45;&gt;data2_entC&#45;menF&#45;KO</title>
<path fill="none" stroke="#000000" stroke-width="1.46" d="M219.1335,-267.9775C225.0525,-262.2525 231.678,-255.8442 237.8994,-249.8269"/>
<polygon fill="#000000" stroke="#000000" stroke-width="1.46" points="239.3335,-250.8744 241.7108,-246.1403 236.9002,-248.3586 239.3335,-250.8744"/>
</g>
<!-- data1_G&#45;box -->
<g id="node30" class="node">
<title>data1_G&#45;box</title>
<text text-anchor="middle" x="206.5" y="-178.3" font-family="Helvetica,sans-Serif" font-size="14.00" fill="#000000">G&#45;box</text>
</g>
<!-- data1_G&#45;box&#45;&gt;data2_PurR&#45;1 -->
<g id="edge25" class="edge">
<title>data1_G&#45;box&#45;&gt;data2_PurR&#45;1</title>
<path fill="none" stroke="#000000" stroke-width="2.96" d="M206.5,-163.9664C206.5,-158.6707 206.5,-152.8028 206.5,-147.231"/>
<polygon fill="#000000" stroke="#000000" stroke-width="2.96" points="208.2501,-147.2222 206.5,-142.2222 204.7501,-147.2223 208.2501,-147.2222"/>
</g>
<!-- data1_GlpP -->
<g id="node31" class="node">
<title>data1_GlpP</title>
<text text-anchor="middle" x="340.5" y="-281.3" font-family="Helvetica,sans-Serif" font-size="14.00" fill="#000000">GlpP</text>
</g>
<!-- data1_GlpP&#45;&gt;data2_GlpR -->
<g id="edge26" class="edge">
<title>data1_GlpP&#45;&gt;data2_GlpR</title>
<path fill="none" stroke="#000000" stroke-width="3.32" d="M340.5,-266.9664C340.5,-261.6707 340.5,-255.8028 340.5,-250.231"/>
<polygon fill="#000000" stroke="#000000" stroke-width="3.32" points="342.2501,-250.2222 340.5,-245.2222 338.7501,-250.2223 342.2501,-250.2222"/>
</g>
<!-- data1_LnrK -->
<g id="node32" class="node">
<title>data1_LnrK</title>
<text text-anchor="middle" x="340.5" y="-385.3" font-family="Helvetica,sans-Serif" font-size="14.00" fill="#000000">LnrK</text>
</g>
<!-- data1_LnrK&#45;&gt;data2_CecR -->
<g id="edge20" class="edge">
<title>data1_LnrK&#45;&gt;data2_CecR</title>
<path fill="none" stroke="#000000" stroke-width="1.41" d="M340.5,-370.9664C340.5,-365.6707 340.5,-359.8028 340.5,-354.231"/>
<polygon fill="#000000" stroke="#000000" stroke-width="1.41" points="342.2501,-354.2222 340.5,-349.2222 338.7501,-354.2223 342.2501,-354.2222"/>
</g>
<!-- data1_MntR -->
<g id="node33" class="node">
<title>data1_MntR</title>
<text text-anchor="middle" x="179.5" y="-73.3" font-family="Helvetica,sans-Serif" font-size="14.00" fill="#000000">MntR</text>
</g>
<!-- data1_MntR&#45;&gt;data2_Zinc -->
<g id="edge27" class="edge">
<title>data1_MntR&#45;&gt;data2_Zinc</title>
<path fill="none" stroke="#000000" stroke-width="1.56" d="M187.895,-58.9664C190.4105,-53.5626 193.2034,-47.5631 195.8442,-41.8903"/>
<polygon fill="#000000" stroke="#000000" stroke-width="1.56" points="197.4936,-42.4937 198.0172,-37.2222 194.3205,-41.0166 197.4936,-42.4937"/>
</g>
<!-- data1_PyrR -->
<g id="node34" class="node">
<title>data1_PyrR</title>
<text text-anchor="middle" x="340.5" y="-178.3" font-family="Helvetica,sans-Serif" font-size="14.00" fill="#000000">PyrR</text>
</g>
<!-- data1_PyrR&#45;&gt;data2_PurR&#45;2 -->
<g id="edge5" class="edge">
<title>data1_PyrR&#45;&gt;data2_PurR&#45;2</title>
<path fill="none" stroke="#000000" stroke-width="2.21" d="M340.5,-163.9664C340.5,-158.6707 340.5,-152.8028 340.5,-147.231"/>
<polygon fill="#000000" stroke="#000000" stroke-width="2.21" points="342.2501,-147.2222 340.5,-142.2222 338.7501,-147.2223 342.2501,-147.2222"/>
</g>
<!-- data1_SPbeta&#45;1 -->
<g id="node35" class="node">
<title>data1_SPbeta&#45;1</title>
<text text-anchor="middle" x="668.5" y="-386.3" font-family="Helvetica,sans-Serif" font-size="14.00" fill="#000000">SPbeta&#45;1</text>
</g>
<!-- data1_SPbeta&#45;1&#45;&gt;data2_NarL -->
<g id="edge4" class="edge">
<title>data1_SPbeta&#45;1&#45;&gt;data2_NarL</title>
<path fill="none" stroke="#000000" stroke-width="1.31" d="M668.1945,-371.9775C668.1013,-366.477 667.9974,-360.3458 667.8989,-354.5365"/>
<polygon fill="#000000" stroke="#000000" stroke-width="1.31" points="669.6451,-354.2889 667.8105,-349.3193 666.1456,-354.3483 669.6451,-354.2889"/>
</g>
<!-- data1_SigB&#45;2 -->
<g id="node36" class="node">
<title>data1_SigB&#45;2</title>
<text text-anchor="middle" x="612.5" y="-178.3" font-family="Helvetica,sans-Serif" font-size="14.00" fill="#000000">SigB&#45;2</text>
</g>
<!-- data1_SigB&#45;2&#45;&gt;data2_RpoS -->
<g id="edge9" class="edge">
<title>data1_SigB&#45;2&#45;&gt;data2_RpoS</title>
<path fill="none" stroke="#000000" stroke-width="1.26" d="M612.5,-163.9664C612.5,-158.6707 612.5,-152.8028 612.5,-147.231"/>
<polygon fill="#000000" stroke="#000000" stroke-width="1.26" points="614.2501,-147.2222 612.5,-142.2222 610.7501,-147.2223 614.2501,-147.2222"/>
</g>
<!-- data1_SigD -->
<g id="node37" class="node">
<title>data1_SigD</title>
<text text-anchor="middle" x="27.5" y="-281.3" font-family="Helvetica,sans-Serif" font-size="14.00" fill="#000000">SigD</text>
</g>
<!-- data1_SigD&#45;&gt;data2_FlhDC -->
<g id="edge12" class="edge">
<title>data1_SigD&#45;&gt;data2_FlhDC</title>
<path fill="none" stroke="#000000" stroke-width="2" d="M27.5,-266.9664C27.5,-261.6707 27.5,-255.8028 27.5,-250.231"/>
<polygon fill="#000000" stroke="#000000" stroke-width="2" points="29.2501,-250.2222 27.5,-245.2222 25.7501,-250.2223 29.2501,-250.2222"/>
</g>
<!-- data1_SigD&#45;&gt;data2_FliA -->
<g id="edge13" class="edge">
<title>data1_SigD&#45;&gt;data2_FliA</title>
<path fill="none" stroke="#000000" stroke-width="2.26" d="M44.9118,-266.9664C50.4423,-261.2384 56.6191,-254.841 62.3813,-248.8729"/>
<polygon fill="#000000" stroke="#000000" stroke-width="2.26" points="63.6921,-250.0348 65.9061,-245.2222 61.1741,-247.6037 63.6921,-250.0348"/>
</g>
<!-- data1_SwrA -->
<g id="node38" class="node">
<title>data1_SwrA</title>
<text text-anchor="middle" x="82.5" y="-281.3" font-family="Helvetica,sans-Serif" font-size="14.00" fill="#000000">SwrA</text>
</g>
<!-- data1_SwrA&#45;&gt;data2_FlhDC -->
<g id="edge15" class="edge">
<title>data1_SwrA&#45;&gt;data2_FlhDC</title>
<path fill="none" stroke="#000000" stroke-width="2.87" d="M65.3991,-266.9664C59.9674,-261.2384 53.9009,-254.841 48.2416,-248.8729"/>
<polygon fill="#000000" stroke="#000000" stroke-width="2.87" points="49.4901,-247.6462 44.7797,-245.2222 46.9503,-250.0546 49.4901,-247.6462"/>
</g>
<!-- data1_SwrA&#45;&gt;data2_FliA -->
<g id="edge16" class="edge">
<title>data1_SwrA&#45;&gt;data2_FliA</title>
<path fill="none" stroke="#000000" stroke-width="1.38" d="M82.8109,-266.9664C82.9022,-261.6707 83.0034,-255.8028 83.0995,-250.231"/>
<polygon fill="#000000" stroke="#000000" stroke-width="1.38" points="84.8493,-250.2517 83.1858,-245.2222 81.3498,-250.1913 84.8493,-250.2517"/>
</g>
<!-- data1_Thi&#45;box -->
<g id="node39" class="node">
<title>data1_Thi&#45;box</title>
<text text-anchor="middle" x="55.5" y="-73.3" font-family="Helvetica,sans-Serif" font-size="14.00" fill="#000000">Thi&#45;box</text>
</g>
<!-- data1_Thi&#45;box&#45;&gt;data2_Thiamine -->
<g id="edge19" class="edge">
<title>data1_Thi&#45;box&#45;&gt;data2_Thiamine</title>
<path fill="none" stroke="#000000" stroke-width="2.03" d="M55.5,-58.9664C55.5,-53.6707 55.5,-47.8028 55.5,-42.231"/>
<polygon fill="#000000" stroke="#000000" stroke-width="2.03" points="57.2501,-42.2222 55.5,-37.2222 53.7501,-42.2223 57.2501,-42.2222"/>
</g>
<!-- data1_TnrA&#45;1 -->
<g id="node40" class="node">
<title>data1_TnrA&#45;1</title>
<text text-anchor="middle" x="612.5" y="-281.3" font-family="Helvetica,sans-Serif" font-size="14.00" fill="#000000">TnrA&#45;1</text>
</g>
<!-- data1_TnrA&#45;1&#45;&gt;data2_Leu/Ile -->
<g id="edge10" class="edge">
<title>data1_TnrA&#45;1&#45;&gt;data2_Leu/Ile</title>
<path fill="none" stroke="#000000" stroke-width="2.14" d="M612.5,-266.9664C612.5,-261.6707 612.5,-255.8028 612.5,-250.231"/>
<polygon fill="#000000" stroke="#000000" stroke-width="2.14" points="614.2501,-250.2222 612.5,-245.2222 610.7501,-250.2223 614.2501,-250.2222"/>
</g>
<!-- data1_TnrA&#45;2 -->
<g id="node41" class="node">
<title>data1_TnrA&#45;2</title>
<text text-anchor="middle" x="55.5" y="-178.3" font-family="Helvetica,sans-Serif" font-size="14.00" fill="#000000">TnrA&#45;2</text>
</g>
<!-- data1_TnrA&#45;2&#45;&gt;data2_NtrC+RpoN -->
<g id="edge14" class="edge">
<title>data1_TnrA&#45;2&#45;&gt;data2_NtrC+RpoN</title>
<path fill="none" stroke="#000000" stroke-width="1.26" d="M55.5,-163.9664C55.5,-158.6707 55.5,-152.8028 55.5,-147.231"/>
<polygon fill="#000000" stroke="#000000" stroke-width="1.26" points="57.2501,-147.2222 55.5,-142.2222 53.7501,-147.2223 57.2501,-147.2222"/>
</g>
<!-- data1_YlxR&#45;1 -->
<g id="node42" class="node">
<title>data1_YlxR&#45;1</title>
<text text-anchor="middle" x="449.5" y="-281.3" font-family="Helvetica,sans-Serif" font-size="14.00" fill="#000000">YlxR&#45;1</text>
</g>
<!-- data1_YlxR&#45;1&#45;&gt;data2_His&#45;tRNA -->
<g id="edge11" class="edge">
<title>data1_YlxR&#45;1&#45;&gt;data2_His&#45;tRNA</title>
<path fill="none" stroke="#000000" stroke-width="3.07" d="M449.5,-266.9664C449.5,-261.6707 449.5,-255.8028 449.5,-250.231"/>
<polygon fill="#000000" stroke="#000000" stroke-width="3.07" points="451.2501,-250.2222 449.5,-245.2222 447.7501,-250.2223 451.2501,-250.2222"/>
</g>
<!-- data1_YlxR&#45;2 -->
<g id="node43" class="node">
<title>data1_YlxR&#45;2</title>
<text text-anchor="middle" x="55.5" y="-385.3" font-family="Helvetica,sans-Serif" font-size="14.00" fill="#000000">YlxR&#45;2</text>
</g>
<!-- data1_YlxR&#45;2&#45;&gt;data2_ArgR -->
<g id="edge17" class="edge">
<title>data1_YlxR&#45;2&#45;&gt;data2_ArgR</title>
<path fill="none" stroke="#000000" stroke-width="3.27" d="M55.5,-370.9664C55.5,-365.6707 55.5,-359.8028 55.5,-354.231"/>
<polygon fill="#000000" stroke="#000000" stroke-width="3.27" points="57.2501,-354.2222 55.5,-349.2222 53.7501,-354.2223 57.2501,-354.2222"/>
</g>
<!-- data1_Zur -->
<g id="node44" class="node">
<title>data1_Zur</title>
<text text-anchor="middle" x="234.5" y="-73.3" font-family="Helvetica,sans-Serif" font-size="14.00" fill="#000000">Zur</text>
</g>
<!-- data1_Zur&#45;&gt;data2_Zinc -->
<g id="edge18" class="edge">
<title>data1_Zur&#45;&gt;data2_Zinc</title>
<path fill="none" stroke="#000000" stroke-width="1.97" d="M225.7941,-58.9664C223.1854,-53.5626 220.2891,-47.5631 217.5505,-41.8903"/>
<polygon fill="#000000" stroke="#000000" stroke-width="1.97" points="219.0467,-40.9642 215.2969,-37.2222 215.8948,-42.4858 219.0467,-40.9642"/>
</g>
<!-- data1_stringent response -->
<g id="node45" class="node">
<title>data1_stringent response</title>
<text text-anchor="middle" x="340.5" y="-82.8" font-family="Helvetica,sans-Serif" font-size="14.00" fill="#000000">stringent&#45;</text>
<text text-anchor="middle" x="340.5" y="-67.8" font-family="Helvetica,sans-Serif" font-size="14.00" fill="#000000"> response</text>
</g>
<!-- data1_stringent response&#45;&gt;data2_translation -->
<g id="edge8" class="edge">
<title>data1_stringent response&#45;&gt;data2_translation</title>
<path fill="none" stroke="#000000" stroke-width="2.78" d="M340.5,-59.6854C340.5,-54.5467 340.5,-48.9269 340.5,-43.549"/>
<polygon fill="#000000" stroke="#000000" stroke-width="2.78" points="342.2501,-43.2784 340.5,-38.2785 338.7501,-43.2785 342.2501,-43.2784"/>
</g>
</g>
</svg>
